<?xml version="1.0" standalone="no"?>
<!DOCTYPE svg PUBLIC "-//W3C//DTD SVG 20010904//EN"
 "http://www.w3.org/TR/2001/REC-SVG-20010904/DTD/svg10.dtd">
<svg version="1.0" xmlns="http://www.w3.org/2000/svg"
 width="512.000000pt" height="512.000000pt" viewBox="0 0 512.000000 512.000000"
 preserveAspectRatio="xMidYMid meet">
<metadata>
Created by potrace 1.15, written by Peter Selinger 2001-2017
</metadata>
<g transform="translate(0.000000,512.000000) scale(0.100000,-0.100000)"
fill="#333" stroke="none">
<path d="M2430 2560 l0 -1650 239 0 239 0 4 183 c5 161 8 191 31 262 36 109
89 195 172 280 342 349 911 252 1121 -190 53 -111 65 -172 71 -362 l6 -173
238 0 239 0 0 184 c0 116 -5 214 -15 268 -43 249 -145 442 -334 629 l-106 106
54 44 c162 132 310 369 368 587 23 86 26 122 30 320 l5 222 -239 0 -240 0 -6
-167 c-7 -194 -21 -264 -78 -379 -86 -176 -239 -304 -433 -363 -47 -14 -117
-24 -220 -31 -83 -5 -183 -16 -221 -24 -130 -28 -276 -88 -392 -162 l-53 -34
0 1050 0 1050 -240 0 -240 0 0 -1650z"/>
<path d="M995 3259 c-101 -15 -235 -57 -341 -109 -304 -148 -530 -418 -621
-746 -26 -94 -28 -110 -28 -309 0 -199 2 -215 28 -310 124 -448 497 -787 947
-860 78 -12 208 -15 738 -15 l642 0 0 639 c0 401 -4 668 -11 717 -23 165 -97
358 -190 495 -59 88 -180 212 -274 282 -90 68 -247 148 -344 177 -158 46 -382
63 -546 39z m351 -494 c32 -8 97 -34 144 -57 117 -57 247 -186 307 -305 73
-143 78 -183 78 -623 l0 -385 -395 0 c-349 1 -403 3 -460 19 -149 41 -294 131
-377 235 -63 79 -128 219 -149 321 -49 247 62 527 270 674 185 131 380 172
582 121z"/>
</g>
</svg>
