<?xml version="1.0" encoding="utf-8"?>
<svg version="1.1" id="logo" 
	 xmlns="http://www.w3.org/2000/svg" 
	 xmlns:xlink="http://www.w3.org/1999/xlink" 
	 x="0px" y="0px"
	 width="512pt" height="512pt"
	 viewBox="0 0 235.7 235.7" 
	 style="enable-background:new 0 0 235.7 235.7;" 
	 xml:space="preserve">
<g transform="translate(0.000000,512.000000) scale(0.100000,-0.100000)">
	<path d="M995,5109.1c-101-15-235-57-341-109c-304-148-530-418-621-746c-26-94-28-110-28-309c0-199,2-215,28-310
		c124-448,497-787,947-860c78-12,208-15,738-15h642v639c0,401-4,668-11,717c-23,165-97,358-190,495c-59,88-180,212-274,282
		c-90,68-247,148-344,177C1383,5116.1,1159,5133.1,995,5109.1z M1346,4615.1c32-8,97-34,144-57c117-57,247-186,307-305
		c73-143,78-183,78-623v-385h-395c-349,1-403,3-460,19c-149,41-294,131-377,235c-63,79-128,219-149,321c-49,247,62,527,270,674
		C949,4625.1,1144,4666.1,1346,4615.1z"/>
</g>
</svg>
