<!DOCTYPE svg PUBLIC "-//W3C//DTD SVG 20010904//EN" "http://www.w3.org/TR/2001/REC-SVG-20010904/DTD/svg10.dtd">
<svg version="1.0" xmlns="http://www.w3.org/2000/svg" width="400px" height="214px" viewBox="0 0 4000 2140" preserveAspectRatio="xMidYMid meet">
<g id="layer101" fill="#0c0f0f" stroke="none">
 <path d="M226 2057 c-11 -131 -8 -522 4 -632 6 -55 20 -145 31 -199 10 -55 18 -100 16 -101 -1 -1 -31 -17 -66 -36 -83 -43 -146 -106 -179 -177 -23 -49 -27 -70 -27 -152 0 -85 4 -102 31 -160 57 -120 177 -224 296 -256 105 -28 231 -13 332 38 l38 20 37 -29 c170 -136 438 -249 721 -307 263 -54 431 -69 695 -63 338 8 558 43 770 122 130 49 175 72 289 149 l94 64 28 -19 c36 -23 134 -56 195 -64 161 -23 351 92 432 262 30 63 32 75 32 173 0 90 -3 112 -24 153 -36 73 -103 141 -176 178 -36 19 -65 37 -65 42 0 4 9 47 19 95 47 211 75 467 87 785 l7 197 -1805 0 -1805 0 -7 -83z"/>
 </g>
<g id="layer102" fill="#c2b09a" stroke="none">
 <path d="M266 2048 c-9 -138 -7 -511 4 -613 54 -483 220 -823 509 -1041 276 -208 722 -336 1222 -351 664 -20 1138 136 1414 465 109 130 168 237 223 405 97 295 140 580 158 1050 l7 177 -1765 0 -1765 0 -7 -92z m1672 35 c13 -8 32 -23 43 -34 19 -19 20 -19 54 15 44 45 91 54 150 31 69 -26 75 -40 75 -185 l0 -125 64 0 c61 0 67 -2 101 -35 53 -50 68 -85 62 -138 -7 -63 -50 -118 -142 -180 -73 -50 -81 -58 -87 -96 -26 -147 -311 -184 -435 -56 -18 19 -36 49 -39 68 -5 27 -14 37 -43 49 -113 47 -178 161 -151 264 14 52 66 109 108 117 l33 7 2 87 c6 179 101 277 205 211z m-514 -683 c284 -72 454 -306 417 -574 -39 -279 -243 -448 -541 -449 -264 0 -487 143 -558 358 -96 292 71 598 364 669 88 21 227 20 318 -4z m1381 -56 c282 -69 451 -298 414 -563 -32 -228 -170 -391 -380 -446 -72 -20 -235 -19 -313 1 -164 41 -320 161 -385 295 -46 94 -68 213 -54 296 24 137 121 282 235 351 137 82 317 107 483 66z"/>
 <path d="M2083 2061 c-17 -11 -36 -28 -41 -38 -17 -31 -22 -105 -14 -203 7 -95 7 -95 35 -98 16 -2 57 7 92 19 l64 22 6 71 c4 39 5 100 3 135 -3 55 -7 67 -28 82 -39 29 -80 33 -117 10z"/>
 <path d="M1822 2047 c-33 -35 -52 -102 -52 -186 l0 -77 103 -32 c56 -18 105 -32 109 -32 4 0 5 64 3 143 l-4 142 -37 33 c-46 39 -90 43 -122 9z"/>
 <path d="M2240 1739 c-186 -70 -213 -71 -374 -20 -53 17 -110 31 -127 31 -44 0 -84 -25 -103 -64 -45 -94 8 -212 114 -256 29 -12 33 -11 42 3 5 10 28 27 51 40 36 19 57 22 152 22 93 0 118 -4 160 -23 27 -13 59 -32 70 -42 21 -20 22 -20 81 15 75 45 129 102 144 152 11 34 10 46 -5 77 -22 45 -79 86 -120 86 -16 -1 -55 -10 -85 -21z"/>
 <path d="M1150 1383 c-160 -26 -316 -151 -372 -296 -20 -53 -23 -80 -23 -192 0 -127 1 -131 33 -198 64 -128 205 -237 353 -272 83 -19 239 -19 314 0 171 45 306 180 345 345 19 81 15 214 -9 282 -54 156 -210 286 -388 323 -63 14 -195 18 -253 8z m250 -526 c114 -60 120 -231 10 -305 -29 -20 -44 -23 -93 -20 -46 4 -63 10 -88 34 -82 76 -79 215 5 279 54 41 105 44 166 12z"/>
 <path d="M1310 826 c-15 -19 -9 -56 12 -69 34 -22 66 41 36 71 -16 16 -33 15 -48 -2z"/>
 <path d="M2486 1314 c-138 -33 -263 -135 -325 -264 -35 -73 -36 -78 -36 -196 0 -119 0 -121 38 -197 64 -129 182 -228 337 -283 59 -21 229 -29 303 -15 88 16 184 68 247 132 100 102 145 227 138 388 -3 82 -8 106 -36 164 -60 129 -199 235 -354 272 -78 18 -234 18 -312 -1z m256 -520 c35 -18 65 -61 79 -115 22 -86 -23 -173 -106 -204 -135 -52 -253 109 -185 251 40 82 128 110 212 68z"/>
 <path d="M2638 745 c-10 -22 -9 -29 9 -46 17 -17 24 -19 42 -10 12 7 21 22 21 34 0 49 -53 64 -72 22z"/>
 <path d="M230 1056 c-72 -38 -127 -92 -157 -154 -37 -76 -39 -187 -4 -275 32 -81 123 -177 208 -219 107 -52 254 -49 366 8 l27 15 -67 77 c-38 42 -76 88 -85 101 l-16 23 -52 -17 c-89 -30 -154 -2 -185 80 -23 60 -14 90 46 147 l50 47 -29 93 c-17 51 -36 94 -44 95 -7 1 -33 -8 -58 -21z"/>
 <path d="M3702 998 c-3 -12 -22 -71 -43 -131 l-37 -109 25 -37 c63 -91 -21 -222 -132 -205 -40 5 -41 5 -108 -69 -37 -42 -67 -78 -67 -80 0 -3 25 -16 55 -31 202 -95 426 -14 528 193 29 60 32 74 32 161 0 83 -3 101 -27 145 -32 62 -98 125 -168 160 l-52 26 -6 -23z"/>
 </g>
<g id="layer103" fill="#8fe3e5" stroke="none">
 <path d="M266 2048 c-9 -138 -7 -511 4 -613 54 -483 220 -823 509 -1041 276 -208 722 -336 1222 -351 664 -20 1138 136 1414 465 109 130 168 237 223 405 97 295 140 580 158 1050 l7 177 -1765 0 -1765 0 -7 -92z m1672 35 c13 -8 32 -23 43 -34 19 -19 20 -19 54 15 44 45 91 54 150 31 69 -26 75 -40 75 -185 l0 -125 64 0 c61 0 67 -2 101 -35 53 -50 68 -85 62 -138 -7 -63 -50 -118 -142 -180 -73 -50 -81 -58 -87 -96 -26 -147 -311 -184 -435 -56 -18 19 -36 49 -39 68 -5 27 -14 37 -43 49 -113 47 -178 161 -151 264 14 52 66 109 108 117 l33 7 2 87 c6 179 101 277 205 211z m-514 -683 c284 -72 454 -306 417 -574 -39 -279 -243 -448 -541 -449 -264 0 -487 143 -558 358 -96 292 71 598 364 669 88 21 227 20 318 -4z m1381 -56 c282 -69 451 -298 414 -563 -32 -228 -170 -391 -380 -446 -72 -20 -235 -19 -313 1 -164 41 -320 161 -385 295 -46 94 -68 213 -54 296 24 137 121 282 235 351 137 82 317 107 483 66z"/>
 <path d="M2092 2060 c-64 -39 -76 -95 -58 -263 l8 -79 45 7 c25 4 53 10 62 15 9 4 28 13 42 20 26 12 27 16 34 119 9 139 -1 165 -71 189 -26 8 -37 7 -62 -8z"/>
 <path d="M1823 2038 c-36 -39 -56 -115 -51 -197 l3 -53 60 -19 c33 -11 81 -25 106 -33 l45 -14 -3 137 -3 136 -33 32 c-17 18 -45 35 -62 38 -25 5 -35 1 -62 -27z"/>
 <path d="M1130 1372 c-151 -34 -271 -128 -340 -268 -33 -67 -34 -73 -35 -189 0 -93 4 -132 19 -175 38 -110 147 -223 263 -274 160 -70 354 -74 491 -10 29 13 57 24 62 24 19 0 146 137 168 180 12 25 31 88 42 142 18 89 19 102 6 171 -40 208 -202 359 -429 402 -98 19 -152 18 -247 -3z m268 -507 c41 -21 79 -67 92 -113 13 -47 12 -59 -3 -102 -20 -59 -45 -89 -92 -110 -55 -25 -72 -25 -129 -1 -89 39 -129 148 -86 236 44 91 138 129 218 90z"/>
 <path d="M1310 825 c-20 -24 -4 -65 25 -65 18 0 26 7 31 25 7 27 -9 55 -31 55 -7 0 -18 -7 -25 -15z"/>
 <path d="M2555 1324 c-105 -22 -158 -42 -227 -87 -130 -85 -206 -222 -208 -371 -1 -217 148 -410 371 -481 216 -68 418 -28 554 109 151 152 188 395 88 578 -61 111 -208 211 -358 243 -65 14 -174 18 -220 9z m179 -524 c86 -42 121 -153 76 -244 -73 -151 -273 -114 -305 56 -14 73 34 165 100 194 43 19 82 17 129 -6z"/>
 <path d="M2652 758 c-17 -17 -15 -53 3 -68 23 -19 47 6 43 44 -3 33 -25 45 -46 24z"/>
 <path d="M230 1056 c-72 -38 -127 -92 -157 -154 -37 -76 -39 -187 -4 -275 32 -81 123 -177 208 -219 107 -52 254 -49 366 8 l27 15 -67 77 c-38 42 -76 88 -85 101 l-16 23 -52 -17 c-89 -30 -154 -2 -185 80 -23 60 -14 90 46 147 l50 47 -29 93 c-17 51 -36 94 -44 95 -7 1 -33 -8 -58 -21z"/>
 <path d="M3702 998 c-3 -12 -22 -71 -43 -131 l-37 -109 25 -37 c63 -91 -21 -222 -132 -205 -40 5 -41 5 -108 -69 -37 -42 -67 -78 -67 -80 0 -3 25 -16 55 -31 202 -95 426 -14 528 193 29 60 32 74 32 161 0 83 -3 101 -27 145 -32 62 -98 125 -168 160 l-52 26 -6 -23z"/>
 </g>
<g id="layer104" fill="#fefefe" stroke="none">
 <path d="M2092 2060 c-64 -39 -76 -95 -58 -263 l8 -79 45 7 c25 4 53 10 62 15 9 4 28 13 42 20 26 12 27 16 34 119 9 139 -1 165 -71 189 -26 8 -37 7 -62 -8z"/>
 <path d="M1823 2038 c-36 -39 -56 -115 -51 -197 l3 -53 60 -19 c33 -11 81 -25 106 -33 l45 -14 -3 137 -3 136 -33 32 c-17 18 -45 35 -62 38 -25 5 -35 1 -62 -27z"/>
 <path d="M1130 1372 c-151 -34 -271 -128 -340 -268 -33 -67 -34 -73 -35 -189 0 -93 4 -132 19 -175 38 -110 147 -223 263 -274 160 -70 354 -74 491 -10 29 13 57 24 62 24 19 0 146 137 168 180 12 25 31 88 42 142 18 89 19 102 6 171 -40 208 -202 359 -429 402 -98 19 -152 18 -247 -3z m268 -507 c41 -21 79 -67 92 -113 13 -47 12 -59 -3 -102 -20 -59 -45 -89 -92 -110 -55 -25 -72 -25 -129 -1 -89 39 -129 148 -86 236 44 91 138 129 218 90z"/>
 <path d="M1310 825 c-20 -24 -4 -65 25 -65 18 0 26 7 31 25 7 27 -9 55 -31 55 -7 0 -18 -7 -25 -15z"/>
 <path d="M2555 1324 c-105 -22 -158 -42 -227 -87 -130 -85 -206 -222 -208 -371 -1 -217 148 -410 371 -481 216 -68 418 -28 554 109 151 152 188 395 88 578 -61 111 -208 211 -358 243 -65 14 -174 18 -220 9z m179 -524 c86 -42 121 -153 76 -244 -73 -151 -273 -114 -305 56 -14 73 34 165 100 194 43 19 82 17 129 -6z"/>
 <path d="M2652 758 c-17 -17 -15 -53 3 -68 23 -19 47 6 43 44 -3 33 -25 45 -46 24z"/>
 </g>

</svg>